<?xml version="1.0" standalone="no"?>
<!DOCTYPE svg PUBLIC "-//W3C//DTD SVG 20010904//EN"
 "http://www.w3.org/TR/2001/REC-SVG-20010904/DTD/svg10.dtd">
<svg version="1.0" xmlns="http://www.w3.org/2000/svg"
 width="902.000000pt" height="906.000000pt" viewBox="0 0 902.000000 906.000000"
 preserveAspectRatio="xMidYMid meet">
<metadata>
Created by potrace 1.16, written by Peter Selinger 2001-2019
</metadata>
<g transform="translate(0.000000,906.000000) scale(0.100000,-0.100000)"
fill="#000000" stroke="none">
<path d="M4162 7053 c-10 -16 -119 -207 -242 -425 l-224 -397 -650 -3 c-631
-4 -653 -5 -729 -26 -246 -68 -427 -249 -499 -497 l-23 -80 0 -1370 0 -1370
23 -78 c73 -252 247 -426 497 -499 l80 -23 2145 0 2145 0 80 23 c250 73 424
247 497 499 l23 78 0 1370 0 1370 -23 80 c-42 146 -123 271 -233 361 -61 50
-163 106 -226 125 l-43 12 -236 421 c-131 232 -244 429 -252 439 -14 16 -77
17 -1053 17 l-1038 0 -19 -27z m2206 -480 l190 -338 -669 -3 c-368 -1 -970 -1
-1338 0 l-668 3 190 338 191 337 957 0 956 0 191 -337z m357 -530 c179 -46
324 -189 382 -378 17 -57 18 -128 18 -1410 0 -1282 -1 -1353 -18 -1410 -58
-189 -192 -323 -383 -382 -56 -17 -151 -18 -2184 -18 -2033 0 -2128 1 -2184
18 -189 58 -327 195 -380 377 -9 30 -19 112 -23 182 l-6 128 481 0 482 0 0
1105 0 1105 -482 0 -481 0 6 128 c10 199 52 306 163 416 90 90 216 150 339
159 22 2 978 1 2125 -1 1841 -3 2092 -5 2145 -19z m-3975 -1788 l0 -945 -395
0 -395 0 0 945 0 945 395 0 395 0 0 -945z"/>
<path d="M4525 6769 c-53 -12 -113 -62 -136 -113 -54 -119 16 -258 143 -286
67 -14 1309 -14 1376 0 28 6 65 24 87 42 130 108 80 322 -85 357 -63 14 -1325
13 -1385 0z m1375 -169 c12 -19 12 -41 0 -60 -8 -13 -95 -15 -666 -18 -578 -2
-660 -1 -680 13 -30 20 -31 49 -1 70 20 14 94 15 680 13 572 -3 659 -5 667
-18z"/>
<path d="M3357 5870 c-95 -24 -184 -97 -227 -185 -35 -72 -40 -189 -10 -267
64 -171 264 -262 435 -197 80 30 154 100 190 181 52 117 30 264 -56 362 -76
86 -223 133 -332 106z m141 -165 c106 -45 146 -157 91 -256 -86 -154 -329 -91
-329 84 0 82 33 135 105 168 49 23 84 24 133 4z"/>
<path d="M5103 5690 c-578 -48 -1077 -442 -1251 -990 -53 -165 -66 -257 -66
-445 0 -188 13 -281 66 -445 228 -712 973 -1130 1703 -955 550 131 971 571
1080 1127 23 117 30 325 15 444 -73 587 -489 1067 -1055 1219 -156 41 -334 58
-492 45z m342 -176 c456 -75 859 -429 995 -874 47 -154 54 -205 55 -380 0
-183 -10 -250 -60 -406 -142 -435 -509 -760 -968 -855 -128 -26 -339 -28 -472
-4 -428 77 -793 372 -958 775 -197 478 -86 1022 283 1390 296 297 700 424
1125 354z"/>
<path d="M5018 5260 c-448 -94 -775 -457 -817 -908 -19 -203 22 -411 116 -582
139 -255 368 -434 656 -512 119 -32 375 -32 494 0 235 64 433 195 575 382 62
80 140 241 167 339 64 234 43 491 -59 708 -170 364 -536 595 -937 592 -64 0
-144 -8 -195 -19z m429 -169 c145 -42 271 -114 372 -213 416 -407 333 -1078
-169 -1374 -262 -155 -605 -152 -874 8 -83 49 -202 160 -262 245 -202 282
-209 671 -19 969 52 81 166 196 247 249 78 52 209 108 288 124 30 6 64 13 75
15 50 12 272 -3 342 -23z"/>
<path d="M5010 4300 l0 -460 173 0 c94 0 201 5 237 11 131 20 249 98 304 198
106 195 77 479 -62 602 -99 87 -186 108 -454 109 l-198 0 0 -460z m421 230
c40 -21 60 -47 79 -104 15 -48 16 -177 1 -233 -24 -87 -101 -142 -198 -143
l-53 0 0 256 0 256 67 -7 c38 -4 84 -15 104 -25z"/>
<path d="M4644 4541 c-17 -11 -36 -34 -43 -52 -34 -97 21 -169 129 -169 83 0
125 45 125 133 0 44 -4 52 -35 78 -29 24 -43 29 -90 29 -36 0 -65 -6 -86 -19z"/>
<path d="M4673 4063 c-32 -6 -72 -51 -79 -88 -16 -89 36 -146 132 -146 70 0
103 21 124 79 13 37 13 47 0 83 -23 64 -86 90 -177 72z"/>
</g>
</svg>
